# xmcd
#
# Track frame offsets:
#	150
#	21328
#	33351
#	58242
#	75990
#	97484
#	110653
#	123756
#	138065
#	151896
#	164978
#	177986
#	191672
#	211336
#	225904
#	243710
#	255107
#
# Disc length: 4326 seconds
#
# Revision: 2
# Processed by: cddbd v1.5.1PL2 Copyright (c) Steve Scherf et al.
# Submitted via: EasyCDDAExtractor 8.0.2.1
#
DISCID=e410e411
DTITLE=Alice Cooper - Uptown Theatre Chicago 06-08-81
DYEAR=1981
DGENRE=Hard Rock
TTITLE0=Who Do You Think We Are
TTITLE1=Model Citizen
TTITLE2=Go To Hell
TTITLE3=Guilty
TTITLE4=Eighteen
TTITLE5=Cold Ethyl
TTITLE6=Only Women Bleed
TTITLE7=No More Mr Nice Guy
TTITLE8=Clones (We Are)
TTITLE9=Under My Wheels
TTITLE10=I Never Cry
TTITLE11=Grim Facts
TTITLE12=Pain
TTITLE13=Billion Dollar Babies
TTITLE14=Generation Landslide
TTITLE15=Who Do You Think We Are (Reprise)
TTITLE16=School's Out
EXTD=
EXTT0=
EXTT1=
EXTT2=
EXTT3=
EXTT4=
EXTT5=
EXTT6=
EXTT7=
EXTT8=
EXTT9=
EXTT10=
EXTT11=
EXTT12=
EXTT13=
EXTT14=
EXTT15=
EXTT16=
PLAYORDER=
